<?xml version="1.0" encoding="utf-8"?>
<!-- Generator: Adobe Illustrator 17.0.0, SVG Export Plug-In . SVG Version: 6.00 Build 0)  -->
<!DOCTYPE svg PUBLIC "-//W3C//DTD SVG 1.1//EN" "http://www.w3.org/Graphics/SVG/1.1/DTD/svg11.dtd">
<svg version="1.1" xmlns="http://www.w3.org/2000/svg" xmlns:xlink="http://www.w3.org/1999/xlink" x="0px" y="0px" width="109px"
	 height="230px" viewBox="0 0 109 230" enable-background="new 0 0 109 230" xml:space="preserve">
<g id="bg" display="none">
	<rect x="-4.75" y="-2.5" display="inline" fill="#231F20" width="121.5" height="241.25"/>
</g>
<g id="Layer_1" xmlns:sketch="http://www.bohemiancoding.com/sketch/ns">
	<g id="Mapa" transform="translate(124.184823, 40.685573)">
		<path fill="#2F99BE" d="M-46.842,50.865c0-1.57-1.273-2.843-2.843-2.843l0,0c-1.57,0-2.843,1.273-2.843,2.843l0,0
			c0,1.57,1.273,2.843,2.843,2.843l0,0C-48.115,53.708-46.842,52.435-46.842,50.865L-46.842,50.865z"/>
		<path id="Stroke-2" fill="none" stroke="#FFFFFF" stroke-width="1.5" d="M-80.041,183.913l-1.703,0.136
			c0,0-0.303,0.935-0.78,0.919c-0.473-0.017-0.7,0.657-0.7,0.657l0.045,0.03c-0.035,0.073-0.054,0.12-0.054,0.12l0.729,0.502
			c0,0,0.565-0.725,1.248-0.769c1.073-0.691,1.432-0.763,1.367-1.081C-79.841,184.304-79.902,184.166-80.041,183.913
			L-80.041,183.913z M-57.32,163.143c-0.8-0.295-1.469-0.517-2.227-0.064c-0.948,0.563-0.487,1.343-0.998,2.066
			c-0.525,0.744-2.122,0.866-2.755,0.298c1.386-0.434,1.814-1.255,2.354-2.513c-0.605-0.108-1.233-0.39-1.671-0.824
			c0.081,0.375-0.009,0.837-0.03,1.198c-1.116-0.226-1.266-1.673-2.303-1.602l0.122,0.366c0.058,0.487-0.171,0.83-0.619,1.01
			c-0.093-0.453-0.437-0.843-0.959-0.871c-0.461,0.781,0.407,1.562,0.184,2.422c-0.135,0.012-0.274,0.028-0.409,0.04
			c-0.097,0.968,0.021,1.807-1.252,1.812c-0.083-0.335-0.013-1.24-0.29-1.465c-0.715-0.585-1.019-0.038-1.062,0.626
			c-0.038,0.653,1.044,2.094,1.732,2.331c1.155,0.394,1.111-0.53,2.068-0.972c0.868-0.4,1.929-0.121,2.841-0.34
			c-0.666,0.868-0.776,1.326-0.747,2.518c0.23-0.061,0.596,0.09,0.83,0.032c0.076,0.391,0.397,0.495,0.525,0.744
			c0.363-1.115,0.825-0.422,1.587-0.996c0.832-0.625,0.332-1.708,1.93-1.119c-0.034-0.31,0.131-0.792,0.084-1.085
			c1.051-0.102,2.005-0.45,3.245-0.525c0.208-0.667,0.038-1.452,0.297-2.071c-0.051-0.118-0.208-0.366-0.285-0.474
			C-56.177,163.63-56.486,163.449-57.32,163.143L-57.32,163.143z"/>
		<path id="Stroke-3" fill="none" stroke="#FFFFFF" stroke-width="1.5" stroke-linecap="round" d="M-21.082,3.093h-0.033H-21.082
			L-21.082,3.093z"/>
		<path id="Fill-4" fill="#FFFFFF" d="M-98.931,170.953c0,0,0.436,0.968,0.96,1.527c0.413,0.436,0.772,0.916,0.682,1.127
			c0.037,0.146-0.012,0.243-0.189,0.265c-0.248,0.023-0.605,0.209-0.662,0.613c0.015,0.371,0.269,0.899,0.988,1.608
			c2.366,1.989,2.31,3.54,4.703,4.85c2.393,1.304,2.967,2.275,5.044,2.956c0.571,0.191,1.014,0.258,1.362,0.258
			c0.82,0,1.117-0.371,1.343-0.371c0.026,0,0.052,0.006,0.078,0.017c0.057,0.024,0.068,0.112,0.044,0.234
			c0.082,0.393-0.943,2.051-0.943,2.051c-0.37-0.102-0.736-0.144-1.091-0.144c-1.834,0-3.351,1.134-3.351,1.134
			s-4.395-0.887-5.748-0.887h-0.05c-1.289,0.021-2.18,0.326-2.18,0.326l-0.998-15.411c0,0,0.007,0.014,0.02,0.04L-98.931,170.953
			 M-97.8,170.443l-2.369,0.589l0.01,0.149l-0.017,0.005l1.102,17.028l1.535-0.525c0.002,0,0.745-0.242,1.8-0.259h0.001
			c0.925,0,3.88,0.529,5.531,0.863l0.544,0.11l0.444-0.332c0.007-0.005,1.228-0.887,2.608-0.887c0.265,0,0.522,0.034,0.763,0.099
			l0.896,0.245l0.488-0.789c1.009-1.633,1.152-2.335,1.136-2.71c0.04-0.693-0.36-1.181-0.815-1.371
			c-0.151-0.069-0.35-0.112-0.555-0.112c-0.376,0-0.656,0.143-0.841,0.237c-0.164,0.083-0.263,0.134-0.502,0.134
			c-0.258,0-0.584-0.065-0.969-0.193c-1.043-0.343-1.631-0.761-2.444-1.339c-0.629-0.447-1.343-0.954-2.399-1.53
			c-1.077-0.589-1.522-1.21-2.138-2.068c-0.55-0.768-1.173-1.636-2.321-2.608c-0.131-0.131-0.232-0.245-0.313-0.342
			c0.136-0.095,0.252-0.212,0.346-0.349c0.165-0.243,0.248-0.525,0.243-0.822c0.072-0.743-0.467-1.438-1.032-2.036
			C-97.34,171.34-97.662,170.747-97.8,170.443"/>
		<path id="Fill-5" fill="#FFFFFF" d="M-92.879-39.301c0.255,0,0.62,0.078,1.17,0.23c1.634,0.446,1.108,1.49,1.108,1.49
			s0.881-0.162,3.398-0.166h0.037c2.339,0,2.976,0.441,3.767,0.441c0.05,0,0.102-0.002,0.153-0.006
			c0.259,0.879,1.273,2.273,1.273,2.273s0.121,2.036,0.602,2.053c0.001,0.001,0.002,0.001,0.002,0.001
			c0.491,0,2.705-5.128,2.705-5.128l1.208,1.398l1.014-1.219l4.062,0.148c1.198,1.785,2.264,1.727,3.551,3.612
			c3.726,6.718,7.398,6.946,7.398,6.946s-0.132,0.964-0.25,1.64c-0.123,0.675,3.065,0.883,3.623,1.487
			c0.562,0.597,2.103,0.849,3.068,0.884c0.967,0.037,3.39,2.736,4.434,3.354c1.041,0.619,2.635,2.226,2.635,2.226
			c0.241-0.051,0.461-0.075,0.667-0.075c1.125,0,1.849,0.72,3.533,1.681c1.991,1.136,3.274,3.119,3.274,3.119l-0.62,1.039
			c0,0-1.487,0.916-1.527,2.079c-0.044,1.158-1.311,1.403-1.829,2.255c-0.517,0.854-0.183,2.413-1.48,3.524
			c-0.786,0.169-1.123,1.508-1.645,2.556c0.269,0.59,1.724,0.544,3.655,0.712c1.931,0.169,1.222,1.011,2.768,1.068
			c1.552,0.056,2.283,1.246,2.283,1.246s0.625-0.498,1.289-0.498c0.327,0,0.664,0.121,0.939,0.483
			c0.339-0.266,0.558-0.364,0.716-0.364c0.445,0,0.391,0.791,1.106,0.817c0.011,0,0.021,0.001,0.032,0.001
			c0.93,0,0.516-1.533,1.294-1.89c0.088-0.039,0.185-0.057,0.29-0.057c0.839,0,2.129,1.117,2.387,1.124h0.007
			c0.299,0,1.278-0.735,1.316-1.694c0.034-0.966,2.474-1.457,2.474-1.457s2.268-1.178,2.004-1.866
			c-0.418-1.084,1.275-0.437,1.265-2.857c-0.002-0.965,0.439-1.438,0.507-3.271c0.023-0.607,0.325-0.774,0.649-0.774
			c0.395,0,0.824,0.247,0.824,0.247s0.572-0.53,1.385-0.53c0.207,0,0.43,0.034,0.662,0.121c1.953,0.73,1.242,3.141,1.242,3.141
			s1.119,1.203,1.103,1.688c-0.019,0.483-1.162,2.667-1.226,4.407c-0.063,1.737-0.856,2.195-0.856,2.195
			c-1.341,0.739-1.975,1.582-1.934,1.668c-0.034-0.001-0.068-0.001-0.103-0.001c-2.811,0-6.957,2.952-7.551,3.596
			c-0.31,0.335-0.46,0.448-0.648,0.448c-0.179,0-0.394-0.102-0.815-0.212c-0.433,1.244-1.517,1.688-1.517,1.688
			s-1.107,1.12-1.324,1.79c-0.215,0.668-2.713,2.708-3.235,3.754c-0.521,1.046-3.679,2.574-4.602,3.991
			c-0.921,1.418-3.336,3.747-3.336,3.747l0.495,2.441c0,0-1.572,0.527-1.039,1.898c0.322,0.832-1.153,2.282-1.153,2.282
			s0.818,1.576-0.189,2.51c-0.996,0.931-1.035,1.898-0.474,2.497c0.559,0.602-1.199,1.02-0.588,2.881
			c0.242,0.743,0.765,0.224,0.185,2.816c-2.47,1.262-2.608,5.133-1.678,6.228c-0.088-0.003-0.174-0.005-0.256-0.005
			c-1.36,0-1.891,0.412-1.891,0.412l1.519,0.83l0.394,2.432c0,0-0.16,1.386,2.127,2.693c3.99,2.274,3.997,4.691,3.997,4.691
			s-1.597,1.297-1.284,3.341c0.416,2.727,2.736,2.822,3.057,2.822h0.037l0.174,3.299c0,0-0.886,0.256-1.83,2.254
			c-0.947,1.999-3.62,3.55-4.273,5.557c-0.653,2.011-4.274,2.941-10.717,4.348c-3.193,0.701-6.012,0.915-8.113,0.915
			c-2.14,0-3.535-0.222-3.822-0.378c-0.397-0.217-0.966-0.765-1.483-0.765c-0.228,0-0.447,0.107-0.635,0.396
			c-0.952,1.462,0.795,2.064,1.539,2.959c0.743,0.897-0.827,4.038-0.827,4.038s-1.623,2.07-0.81,3.647
			c0.555,1.076,0.241,1.458-1.092,3.441c-0.685,1.02-2.235,1.268-3.58,1.268c-1.276,0-2.369-0.223-2.369-0.223
			s-5.176-2.874-6.533-2.874c-0.055,0-0.103,0.005-0.146,0.015c-1.073,0.255-0.901,3.451-0.079,4.834
			c0.822,1.388,0.109,2.428,0.247,3.884c0.141,1.457,2.457,1.634,2.457,1.634l-0.734,1.524c0.975-0.058,3.009-0.084,3.009-0.084
			s0.079-2.201,0.923-2.201c0.04,0,0.081,0.005,0.125,0.016c0.96,0.227,0.93,1.096,1.09,2.073c0.156,0.972,0.123,1.843-1.441,2.169
			c-0.137,0.029-0.262,0.043-0.375,0.043c-1.17,0-1.106-1.437-1.106-1.437s-2.054,0.107-3.125,0.263
			c0.026,1.935,2.441,2.216,2.441,2.216s-0.046,1.202-1.586,1.202c-0.035,0-0.071,0-0.108-0.002
			c-0.084-0.003-0.16-0.005-0.231-0.005c-1.311,0-0.445,0.567-1.891,2.443c-1.524,1.971-0.58,2.685-0.58,2.685l-0.545,4.241
			c0,0-2.074,1.083-1.341,2.271c0.441,0.72,0.229,0.954-0.241,0.954c-0.308,0-0.725-0.101-1.142-0.23
			c-0.176-0.055-0.356-0.081-0.535-0.081c-0.889,0-1.748,0.626-1.935,1.344c-0.222,0.866-2.512-0.188-4.038,4.404
			c-0.537,1.626-2.536,3.293,0.922,6.71c3.46,3.416,5.534,2.332,6.485,2.755c0.952,0.421,0.112,4.939,0.112,4.939
			s-2.739,3.287-3.639,4.124c-0.901,0.843-4.651,2.736-4.294,6.235c0.358,3.492,0.351,3.592-3.521,6.16
			c-3.873,2.571-1.198,8.956-1.198,8.956l-1.94,0.119l2.003,0.853l2.754,4.162c0,0-2.76-1.357-4.5-1.422
			c-1.4-0.568-2.742-0.766-3.961-0.766c-2.786,0-4.919,1.034-5.572,1.034c-0.074,0-0.13-0.013-0.165-0.044
			c-0.471-0.401-2.695-3.093-2.695-3.093c1.04-1.998-0.301-2.434-0.301-2.434s1.085-0.538,0.576-2.396
			c-0.227-0.811-0.548-1.016-0.895-1.016c-0.352,0-0.731,0.212-1.059,0.212c-0.086,0-0.169-0.014-0.246-0.051
			c-0.075-0.036-0.157-0.051-0.242-0.051c-0.661,0-1.535,0.955-1.535,0.955s-0.466-0.407-0.638-1.089
			c-0.168-0.684-0.13-1.744-0.986-2.166c-0.859-0.414-0.198-2.523-1.106-4.2c-0.554-1.029,0.241-1.249,0.958-2.386
			c0.722-1.132,0.36-1.821,0.36-1.821s1.286-0.73,1.781-1.001c0.492-0.274,0.872-0.067,0.543-1.627
			c-0.332-1.563-0.035-1.742,0.575-2.497c0.608-0.752-0.524-1.663-0.983-2.26c-0.463-0.601,1.049-2.289,0.514-3.469
			c0.31-0.467,1.534-2.166,1.534-2.166s-0.639-1.19-0.411-2.051c0.223-0.863,1.685-1.001,1.236-1.986
			c-0.45-0.985-0.131-1.746-0.511-1.954c-0.38-0.208-0.736-1.09-0.736-1.09c1.897-1.482,0.653-1.914,0.288-2.508
			c-0.367-0.592,0.265-2.023,0.757-2.198c0.49-0.176,1.064,0.04,0.466-2.114c-0.447-1.609-1.06-1.707-1.704-1.707
			c-0.09,0-0.18,0.002-0.27,0.002c-0.129,0-0.258-0.003-0.387-0.022c-0.865-0.129-0.653-0.704-0.653-0.704s-0.383-0.111,0.892-0.549
			c0.268-0.092,0.538-0.128,0.797-0.128c0.977,0,1.804,0.512,1.804,0.512s0.009,0.002,0.026,0.002c0.113,0,0.562-0.091,0.612-1.527
			c0.037-1.011-0.76-1.318-1.471-1.318c-0.443,0-0.853,0.119-1.006,0.261c-0.077,0.071-0.163,0.1-0.251,0.1
			c-0.376,0-0.801-0.523-0.801-0.523c0.218-0.67-0.442-1.181-0.442-1.181s0.835-1.613,0.47-2.208
			c-0.369-0.594-0.432-1.467-0.432-1.467s-0.855-0.419-0.916-1.486c-0.057-1.063,1.37-0.333,1.206-1.118
			c-0.124-0.582-0.571-0.673-0.978-0.673c-0.186,0-0.363,0.019-0.499,0.019c-0.13,0-0.22-0.017-0.241-0.087
			c-0.088-0.29-1.279-2.079-0.777-2.639c0.505-0.56-0.125-1.84-0.296-2.53c-0.168-0.681,0.435-1.335,0.831-1.514
			c0.392-0.178,1.089-0.638,1.089-0.638s-0.631-1.282-0.708-1.771c-0.083-0.484-0.855-0.513-0.855-0.513s0.736-1.614,0.566-2.203
			c-0.173-0.588-0.222-1.847-0.302-2.336c-0.079-0.485-0.893-2.159-0.893-2.159c0.496-0.275,0.803-0.749,0.738-1.62
			c-0.062-0.875,1.106-1.027,1.106-1.027s-0.762-0.412-1.128-0.909c-0.372-0.498,1.136-1.995,0.667-2.399
			c-0.471-0.401-0.706-1.861-0.706-1.861l1.452-0.045l-0.554-0.698c0,0,0.736-1.616,0.381-2.502
			c-0.355-0.884-0.341-1.272,1.445-2.465c1.791-1.191,1.422-1.785,1.147-2.185c-0.275-0.395-1.158-0.135-1.107-1.49
			c0.06-1.647-0.316-1.95-0.489-2.532c-0.174-0.586-0.714-1.769-0.397-2.437c0.316-0.661-0.221-1.944-0.221-1.944
			c0.909-1.031,0.435-1.243-0.017-2.13c-0.453-0.884,0.041-1.154,0.385-2.596c0.259-1.093,0.874-1.225,1.157-1.225
			c0.09,0,0.146,0.013,0.146,0.013s0.019,0.004,0.05,0.004c0.141,0,0.534-0.078,0.565-0.949c0.04-1.066,1.581-0.814,1.515-1.687
			c-0.122-1.652,0.16-1.734,0.16-1.734c-0.552-0.8-0.309-2.145-0.309-2.145s-1.217-1.107-1.204-1.495
			c0.017-0.384,1.298-1.016,1.298-1.016c0.031-0.868,0.506-3.273,1.015-3.932c0.51-0.66,0.256-1.733,0.256-1.733
			s1.079-0.443,1.292-0.92c0.21-0.478-0.786-2.351-0.786-2.351l0.509-0.659c-0.361-0.786,0.184-2.414,0.111-3.095
			c-0.021-0.197-0.087-0.266-0.184-0.266c-0.212,0-0.566,0.33-0.885,0.33c-0.033,0-0.065-0.003-0.097-0.012
			c-0.477-0.113-0.722-1.381-0.722-1.381s1.088-0.635,1.206-1.212c0.117-0.575-1.601-1.221-1.601-1.221l0.053-1.449l-1.234-0.721
			c0,0,0.602-0.556,0.125-0.771c-0.476-0.211-0.634-1.182-0.634-1.182s0.696-0.462,1.098-0.93c0.404-0.47-0.94-0.711-0.94-0.711
			s-0.287-0.106-0.83-1.285c-0.536-1.184-0.5-2.152-0.371-3.017c0.072-0.492,0.443-0.598,0.751-0.598
			c0.234,0,0.431,0.061,0.431,0.061c0.842-1.809,0.222-0.766,0.184-2.415c-0.034-1.647,0.678-2.591,0.678-2.591
			s0.593-0.363,1.387-0.817c0.791-0.454-0.318-1.945-0.318-1.945c1.109-1.219,0.176-2.222-0.442-3.793
			c-0.623-1.57,0.235-1.153,0.867-2.582c0.635-1.427,0.56-4.722,0.56-4.722s2.012-2.054,3.144-3.853
			c1.131-1.797,0.834-4.225,1.822-4.868c0.349-0.226,0.62-0.299,0.826-0.299c0.38,0,0.536,0.25,0.536,0.25l0.711-0.94l0.868,0.126
			c0.598-0.459,0.434-1.241,0.434-1.241c-0.467-0.5-1.385-1.889-1.939-2.683c-0.549-0.798,0.032-0.871,0.747-1.813
			c0.71-0.941-0.408-2.143-0.548-3.599c-0.14-1.46,0.005-2.807,0.005-2.807l0.883-0.353c0,0-0.056-1.069-0.418-1.759
			c-0.364-0.692-0.821-1.386-0.304-2.334c0.519-0.95,2.018-2.154,2.603-2.325c0.589-0.173,2.183-1.372,3.347-1.425
			c1.165-0.055,1.395-1.012,1.624-1.972c0.224-0.959,1.014-3.934,1.527-4.688c0.51-0.758-0.344-1.274-0.344-1.274l-0.833-1.093
			c1.304-1.11,1.636-2.262,1.636-2.262l0.783-0.261c0,0,0.614-0.849,0.632-1.331c0.017-0.487,2.058-0.701,2.058-0.701
			s0,0,0.327-0.957C-93.454-39.002-93.378-39.301-92.879-39.301 M-21.363,2.2c0.012,0.001,0.023,0.001,0.035,0.002
			c-0.009,0.004-0.017,0.006-0.022,0.006S-21.36,2.205-21.363,2.2 M-92.879-40.541L-92.879-40.541
			c-1.366-0.001-1.737,1.098-1.936,1.688l-0.028,0.085l-0.079,0.228c-1.182,0.202-2.292,0.631-2.369,1.723
			c-0.028,0.089-0.108,0.243-0.198,0.397l-0.373,0.124c-0.387,0.129-0.686,0.44-0.799,0.833c-0.006,0.017-0.276,0.834-1.248,1.662
			c-0.501,0.426-0.581,1.17-0.183,1.694l0.832,1.093c0.045,0.059,0.081,0.106,0.118,0.146c-0.729,1.412-1.513,4.747-1.521,4.784
			c-0.074,0.309-0.214,0.895-0.339,0.993c-0.001,0-0.036,0.018-0.136,0.022c-1.061,0.05-2.139,0.653-3.005,1.138
			c-0.229,0.128-0.543,0.304-0.647,0.341c-0.901,0.264-2.659,1.693-3.327,2.916c-0.8,1.462-0.165,2.646,0.213,3.354l0.08,0.151
			c0.056,0.107,0.103,0.247,0.142,0.397c-0.411,0.177-0.696,0.561-0.743,1.006c-0.007,0.06-0.155,1.49-0.007,3.057
			c0.07,0.725,0.313,1.366,0.509,1.881c0.108,0.285,0.268,0.708,0.269,0.873c-0.148,0.193-0.292,0.341-0.431,0.485
			c-0.423,0.437-1.303,1.347-0.332,2.757c0.117,0.169,0.246,0.357,0.384,0.559c0.347,0.506,0.661,0.962,0.939,1.344
			c-0.256,0.073-0.488,0.226-0.654,0.446l-0.151,0.2c-0.035-0.002-0.069-0.002-0.105-0.002c-0.485,0-0.991,0.168-1.501,0.498
			c-0.944,0.614-1.184,1.762-1.416,2.873c-0.174,0.833-0.353,1.694-0.782,2.376c-1.045,1.663-2.961,3.626-2.98,3.646
			c-0.234,0.238-0.361,0.561-0.354,0.895c0.026,1.168-0.074,3.339-0.453,4.191c-0.146,0.332-0.289,0.48-0.47,0.668
			c-0.698,0.725-0.989,1.428-0.416,2.873c0.146,0.372,0.307,0.712,0.448,1.012c0.543,1.146,0.495,1.199,0.228,1.491
			c-0.399,0.439-0.432,1.098-0.078,1.573c0.084,0.114,0.171,0.261,0.239,0.394c-0.571,0.334-0.961,0.572-0.961,0.572
			c-0.132,0.081-0.248,0.187-0.342,0.311c-0.099,0.131-0.97,1.345-0.929,3.363c0.012,0.513,0.074,0.864,0.155,1.135
			c-0.81,0.165-1.382,0.761-1.507,1.611c-0.139,0.935-0.212,2.205,0.468,3.707c0.329,0.715,0.629,1.208,0.936,1.529
			c-0.285,0.278-0.424,0.682-0.359,1.085c0.044,0.266,0.193,0.967,0.618,1.521c-0.024,0.137-0.028,0.273-0.002,0.392
			c0.075,0.336,0.193,0.736,0.49,0.91l0.594,0.347l-0.026,0.709c-0.02,0.532,0.304,1.017,0.802,1.205
			c0.103,0.039,0.211,0.085,0.318,0.135c-0.039,0.026-0.077,0.05-0.114,0.072c-0.451,0.267-0.688,0.789-0.589,1.303
			c0.181,0.936,0.615,2.104,1.652,2.351c0.023,0.005,0.046,0.01,0.069,0.015c-0.072,0.503-0.126,1.03-0.069,1.53l-0.149,0.193
			c-0.298,0.385-0.342,0.909-0.114,1.338c0.233,0.439,0.462,0.959,0.584,1.307c-0.141,0.083-0.316,0.174-0.468,0.237
			c-0.562,0.233-0.873,0.839-0.734,1.43c0.051,0.236,0.036,0.597-0.031,0.691c-0.636,0.823-1.041,2.756-1.199,3.912
			c-1.163,0.699-1.351,1.287-1.371,1.737c-0.01,0.292-0.029,0.844,1.151,2.031c-0.018,0.476,0.019,1.115,0.247,1.723
			c-0.093,0.44-0.092,0.922-0.07,1.336c-0.451,0.213-1.332,0.674-1.472,1.771c-0.777,0.17-1.585,0.792-1.903,2.128
			c-0.097,0.406-0.209,0.706-0.308,0.971c-0.246,0.656-0.524,1.4,0.026,2.476c0.097,0.189,0.195,0.355,0.284,0.505
			c0.014,0.023,0.029,0.049,0.045,0.074c-0.034,0.044-0.079,0.1-0.139,0.168c-0.313,0.356-0.396,0.859-0.213,1.296
			c0.135,0.328,0.242,0.8,0.224,0.979c-0.441,0.992-0.035,2.161,0.236,2.938c0.044,0.126,0.084,0.24,0.112,0.336
			c0.064,0.212,0.137,0.383,0.202,0.535c0.141,0.324,0.272,0.63,0.237,1.602c-0.052,1.374,0.599,1.968,1.097,2.249
			c-0.128,0.113-0.315,0.259-0.586,0.439c-1.829,1.223-2.625,2.17-1.908,3.958c0.063,0.219-0.114,0.982-0.361,1.531
			c-0.006,0.013-0.012,0.026-0.017,0.039c-0.275,0.057-0.526,0.206-0.708,0.425c-0.227,0.274-0.324,0.634-0.268,0.985
			c0.085,0.532,0.273,1.381,0.657,2.032c-0.041,0.076-0.084,0.153-0.12,0.217c-0.371,0.664-0.931,1.668-0.268,2.556
			c0.021,0.028,0.042,0.056,0.064,0.083c-0.207,0.337-0.318,0.74-0.285,1.201c0.028,0.376-0.044,0.416-0.102,0.448
			c-0.576,0.32-0.802,1.033-0.514,1.625c0.369,0.76,0.738,1.619,0.789,1.838c0.02,0.127,0.04,0.362,0.063,0.625
			c0.054,0.589,0.114,1.252,0.242,1.743c-0.024,0.256-0.246,0.926-0.478,1.436c-0.171,0.377-0.144,0.813,0.074,1.165
			c0.183,0.297,0.48,0.499,0.816,0.565c0.06,0.183,0.136,0.378,0.214,0.571c-0.005,0.002-0.011,0.006-0.016,0.007
			c-0.813,0.368-1.862,1.557-1.522,2.938c0.046,0.186,0.117,0.404,0.196,0.639c0.084,0.252,0.232,0.695,0.255,0.926
			c-0.758,1.078,0.047,2.583,0.538,3.499c0.054,0.101,0.1,0.183,0.127,0.242c0.06,0.158,0.215,0.463,0.553,0.672
			c-0.117,0.314-0.129,0.62-0.118,0.82c0.059,1.044,0.568,1.719,1.001,2.108c0.071,0.363,0.2,0.83,0.432,1.261
			c-0.034,0.25-0.219,0.769-0.418,1.158c-0.282,0.549-0.178,1.179,0.323,1.533c-0.062,0.351,0.031,0.715,0.259,0.996
			c0.138,0.169,0.411,0.467,0.784,0.69c-0.72,0.249-1.743,0.632-1.716,1.672c0.002,0.086,0.012,0.17,0.031,0.252
			c0.009,0.236,0.069,0.511,0.235,0.79c0.205,0.345,0.631,0.784,1.498,0.914c0.221,0.031,0.42,0.036,0.57,0.036l0.149-0.001
			l0.122-0.001c0.096,0,0.15,0.003,0.179,0.007c0.047,0.059,0.181,0.259,0.33,0.793c0.082,0.295,0.132,0.515,0.163,0.676
			c-0.787,0.37-1.193,1.312-1.335,1.718c-0.303,0.863-0.27,1.658,0.089,2.239c0.129,0.21,0.285,0.378,0.417,0.516
			c-0.088,0.09-0.219,0.21-0.414,0.363c-0.435,0.34-0.593,0.927-0.386,1.44c0.151,0.374,0.442,0.98,0.878,1.403
			c0.024,0.332,0.059,0.801,0.251,1.346c-0.002,0.002-0.006,0.004-0.008,0.007c-0.381,0.286-0.957,0.718-1.159,1.501
			c-0.207,0.78-0.016,1.618,0.195,2.208c-0.391,0.546-0.949,1.329-1.152,1.635c-0.236,0.356-0.271,0.807-0.095,1.196
			c0.065,0.184-0.195,0.839-0.321,1.154c-0.306,0.769-0.687,1.727-0.046,2.56c0.107,0.139,0.243,0.292,0.39,0.455
			c0.117,0.13,0.304,0.338,0.423,0.501c-0.746,0.919-0.995,1.604-0.634,3.302c0.024,0.115,0.042,0.212,0.056,0.292
			c-0.5,0.274-1.781,1.001-1.781,1.001c-0.545,0.31-0.767,0.972-0.537,1.542c0.004,0.059-0.001,0.292-0.256,0.69
			c-0.168,0.268-0.347,0.476-0.519,0.677c-0.478,0.558-1.278,1.491-0.485,2.963c0.322,0.595,0.374,1.331,0.424,2.043
			c0.068,0.963,0.152,2.163,1.234,2.685c0.093,0.046,0.174,0.538,0.213,0.774c0.033,0.203,0.066,0.397,0.109,0.571
			c0.254,1.013,0.899,1.616,1.026,1.727c0.235,0.205,0.526,0.306,0.816,0.306c0.337,0,0.672-0.135,0.916-0.403
			c0.179-0.193,0.447-0.413,0.617-0.514c0.157,0.043,0.321,0.064,0.49,0.064c0.289,0,0.542-0.062,0.753-0.122
			c0.002,0.007,0.004,0.013,0.006,0.02c0.168,0.611,0.069,0.913-0.012,0.996c-0.403,0.238-0.64,0.685-0.605,1.157
			c0.032,0.444,0.299,0.832,0.692,1.024c-0.002,0.097-0.038,0.333-0.255,0.749c-0.229,0.441-0.173,0.977,0.144,1.36
			c0.69,0.835,2.347,2.823,2.847,3.249c0.173,0.15,0.491,0.339,0.969,0.339c0.394,0,0.808-0.123,1.437-0.31
			c0.971-0.288,2.439-0.725,4.135-0.725c1.216,0,2.392,0.227,3.494,0.675c0.134,0.055,0.276,0.085,0.421,0.09
			c1.205,0.045,3.344,0.973,3.998,1.296c0.174,0.086,0.362,0.127,0.547,0.127c0.348,0,0.69-0.146,0.931-0.42
			c0.371-0.42,0.413-1.036,0.104-1.503l-2.678-4.048c0.098-0.284,0.089-0.598-0.029-0.881c-0.022-0.053-2.228-5.475,0.74-7.445
			c4.217-2.798,4.483-3.277,4.069-7.319c-0.203-1.985,1.399-3.33,3.056-4.538c0.353-0.257,0.632-0.46,0.852-0.666
			c0.929-0.863,3.459-3.894,3.745-4.236c0.136-0.163,0.227-0.358,0.266-0.567c1.019-5.481-0.323-6.075-0.829-6.298
			c-0.465-0.207-0.954-0.222-1.426-0.236c-1.04-0.031-2.466-0.073-4.69-2.268c-2.179-2.153-1.722-3.078-1.088-4.357
			c0.17-0.343,0.345-0.697,0.472-1.082c0.862-2.593,1.833-2.911,2.542-3.142c0.48-0.157,1.281-0.419,1.518-1.342
			c0.031-0.117,0.36-0.413,0.734-0.413c0.059,0,0.114,0.008,0.165,0.024c0.629,0.196,1.109,0.287,1.513,0.287
			c0.936,0,1.359-0.505,1.528-0.806c0.308-0.549,0.252-1.196-0.165-1.927c0.133-0.184,0.485-0.47,0.799-0.637
			c0.354-0.188,0.6-0.54,0.651-0.938l0.545-4.241c0.045-0.345-0.059-0.688-0.275-0.949c0.017-0.131,0.11-0.494,0.606-1.136
			c0.662-0.858,0.93-1.514,1.082-1.957h0.012c0.055,0.002,0.105,0.002,0.155,0.002c1.946,0,2.741-1.347,2.821-2.306
			c0.177,0.04,0.362,0.062,0.556,0.062c0.203,0,0.418-0.024,0.636-0.071c1.91-0.397,2.722-1.601,2.405-3.576
			c-0.022-0.131-0.039-0.256-0.055-0.378c-0.12-0.865-0.322-2.314-1.973-2.706c-0.135-0.032-0.274-0.049-0.41-0.049
			c-0.946,0-1.635,0.695-1.96,1.919c-0.012-0.187-0.067-0.37-0.163-0.536c-0.204-0.355-0.571-0.586-0.98-0.617
			c-0.631-0.055-1.301-0.349-1.318-0.519c-0.036-0.387,0.014-0.773,0.069-1.181c0.115-0.875,0.259-1.964-0.482-3.215
			c-0.438-0.738-0.581-2.19-0.461-2.896c1.066,0.321,3.545,1.522,5.549,2.635c0.111,0.061,0.23,0.106,0.354,0.131
			c0.05,0.01,1.232,0.249,2.618,0.249c2.25,0,3.801-0.611,4.611-1.818l0.163-0.241c1.244-1.848,1.868-2.776,1.001-4.457
			c-0.33-0.64,0.334-1.861,0.687-2.318c0.05-0.064,0.095-0.135,0.131-0.207c0.721-1.443,1.767-4.059,0.673-5.381
			c-0.169-0.203-0.36-0.383-0.55-0.548c1.186,0.346,3.49,0.366,3.995,0.366c1.861,0,4.826-0.164,8.379-0.945
			c6.84-1.491,10.752-2.468,11.63-5.175c0.258-0.791,1.057-1.606,1.903-2.47c0.876-0.893,1.781-1.817,2.312-2.939
			c0.583-1.233,1.075-1.578,1.157-1.628c0.495-0.192,0.819-0.682,0.791-1.221l-0.174-3.299c-0.036-0.661-0.582-1.174-1.238-1.174
			c-0.017,0-0.035,0-0.051,0.001c-0.456-0.001-1.573-0.173-1.817-1.771c-0.198-1.294,0.806-2.164,0.849-2.2
			c0.279-0.236,0.449-0.592,0.448-0.958c-0.001-0.321-0.139-3.21-4.623-5.765c-1.25-0.715-1.462-1.355-1.497-1.522
			c0.029-0.124,0.005-0.135-0.02-0.292l-0.388-2.39c0.218-0.121,0.399-0.308,0.512-0.542c0.215-0.442,0.148-0.968-0.17-1.343
			c-0.138-0.17-0.373-1.039-0.132-2.171c0.127-0.595,0.48-1.665,1.431-2.151c0.328-0.168,0.565-0.473,0.645-0.833
			c0.435-1.943,0.394-2.683-0.189-3.438c-0.012-0.017-0.026-0.032-0.039-0.051c-0.144-0.453-0.039-0.59,0.241-0.956
			c0.684-0.896,0.714-1.692,0.088-2.365c-0.089-0.096,0.058-0.417,0.413-0.749c0.995-0.923,1.012-2.183,0.764-3.136
			c0.625-0.764,1.306-1.923,0.887-3.007c-0.026-0.069-0.027-0.098-0.027-0.098c0.025-0.023,0.194-0.138,0.321-0.185
			c0.571-0.212,0.925-0.817,0.804-1.414l-0.361-1.784c0.782-0.785,2.297-2.36,3.027-3.483c0.347-0.53,1.384-1.268,2.217-1.861
			c1.154-0.82,2.064-1.468,2.455-2.253c0.181-0.364,1.022-1.213,1.579-1.775c1.007-1.017,1.541-1.575,1.727-2.153
			c0.069-0.188,0.481-0.721,0.891-1.158c0.343-0.188,0.929-0.579,1.408-1.258c0.056,0.006,0.115,0.009,0.175,0.009
			c0.777,0,1.248-0.509,1.56-0.846c0.471-0.5,4.287-3.176,6.611-3.197c0.048,0.006,0.095,0.008,0.143,0.008
			c0.178,0,0.375-0.044,0.536-0.117c0.317-0.144,0.549-0.408,0.658-0.72c0.195-0.212,0.632-0.61,1.327-0.993
			c0.253-0.145,1.413-0.929,1.496-3.235c0.035-0.936,0.506-2.176,0.818-2.996c0.246-0.648,0.394-1.039,0.409-1.407
			c0.007-0.227,0.027-0.848-1.009-2.098c0.16-1.312-0.144-3.195-2.141-3.941c-0.357-0.132-0.725-0.199-1.097-0.199
			c-0.616,0-1.138,0.183-1.523,0.383c-0.208-0.058-0.442-0.099-0.686-0.099c-0.903,0-1.838,0.608-1.889,1.967
			c-0.033,0.891-0.16,1.384-0.283,1.861c-0.112,0.43-0.227,0.876-0.225,1.46c0.003,0.733-0.143,0.834-0.407,1.019
			c-0.696,0.484-1.002,1.076-0.911,1.761c-0.247,0.216-0.701,0.521-1.141,0.763c-1.099,0.245-3.225,0.934-3.283,2.589
			c-0.003,0.088-0.059,0.193-0.131,0.29c-0.644-0.41-1.489-0.917-2.339-0.917c-0.285,0-0.553,0.056-0.798,0.165
			c-0.61,0.281-0.911,0.764-1.082,1.21c-0.217-0.141-0.494-0.245-0.844-0.245c-0.22,0-0.427,0.045-0.619,0.115
			c-0.318-0.153-0.667-0.234-1.037-0.234c-0.379,0-0.733,0.084-1.038,0.198c-0.586-0.478-1.426-0.906-2.489-0.945
			c-0.232-0.008-0.308-0.04-0.308-0.04c-0.031-0.023-0.062-0.058-0.098-0.09c-0.438-0.41-0.978-0.819-2.298-0.934
			c-0.399-0.035-0.777-0.06-1.13-0.084c-0.315-0.021-0.666-0.045-0.975-0.075c0.124-0.279,0.265-0.571,0.368-0.696
			c0.156-0.05,0.301-0.131,0.426-0.238c1.157-0.991,1.391-2.249,1.546-3.081c0.052-0.278,0.117-0.625,0.189-0.744
			c0.078-0.128,0.302-0.298,0.519-0.464c0.573-0.435,1.439-1.093,1.488-2.385c0.01-0.293,0.567-0.841,0.938-1.07
			c0.17-0.105,0.312-0.249,0.414-0.42l0.62-1.039c0.241-0.405,0.232-0.912-0.023-1.308c-0.06-0.092-1.473-2.251-3.701-3.523
			c-0.433-0.247-0.808-0.483-1.139-0.692c-0.983-0.618-1.832-1.153-3.01-1.153c-0.077,0-0.154,0.002-0.232,0.007
			c-0.586-0.559-1.618-1.497-2.435-1.983c-0.297-0.175-0.911-0.729-1.454-1.217c-1.564-1.407-2.573-2.271-3.567-2.31
			c-1.078-0.039-2.018-0.317-2.217-0.5c-0.467-0.505-1.219-0.71-2.407-1.001c-0.217-0.053-0.514-0.126-0.768-0.197
			c0.072-0.473,0.128-0.88,0.131-0.906c0.047-0.342-0.05-0.687-0.27-0.954c-0.218-0.266-0.538-0.43-0.882-0.451
			c-0.002-0.002-3.117-0.408-6.39-6.31c-0.019-0.034-0.039-0.066-0.06-0.098c-0.761-1.114-1.469-1.658-2.093-2.139
			c-0.543-0.418-0.972-0.749-1.453-1.465c-0.222-0.33-0.587-0.534-0.985-0.548l-4.061-0.148c-0.016,0-0.031-0.001-0.045-0.001
			c-0.368,0-0.718,0.164-0.954,0.447l-0.079,0.094l-0.251-0.291c-0.237-0.275-0.581-0.43-0.939-0.43
			c-0.063,0-0.126,0.005-0.189,0.015c-0.423,0.064-0.782,0.342-0.951,0.734c-0.388,0.9-0.839,1.886-1.246,2.724
			c-0.368-0.523-0.88-1.352-1.006-1.78c-0.156-0.531-0.643-0.891-1.19-0.891c-0.03,0-0.06,0.001-0.09,0.003
			c-0.021,0.002-0.043,0.002-0.064,0.002c-0.155,0-0.356-0.045-0.635-0.106c-0.605-0.134-1.518-0.335-3.132-0.335
			c-1.018,0.002-1.785,0.027-2.347,0.06c-0.241-0.464-0.758-1.036-1.869-1.34C-91.976-40.432-92.46-40.541-92.879-40.541"/>
		<path id="Stroke-6" fill="none" stroke="#FFFFFF" stroke-width="1.5" stroke-linecap="round" d="M-106.506-16.095
			c0,0,1.161,0.333,3.091,0.501c1.935,0.168,6.791-0.236,8.413,0.499c1.618,0.739,0.015,2.226,0.015,2.226s-0.961-0.225-1.368,0.245
			c-0.403,0.467,0.039,1.647,1.247,3.14c1.038,0.62,0.72,1.381,1.102,1.494c0.386,0.11,1.016-1.224,1.016-1.224l0.783-0.258
			l2.095,1.04c0.324-0.954,0.351-1.727,1.322-1.693c0.964,0.035,1.169-0.15,2.308,0.472c1.14,0.623,2.57,1.256,2.695,0.487
			c0.126-0.771,1.353-0.05,1.353-0.05c0.487-2.595,0.859-2.509,1.856-3.247c0.994-0.739,1.558,0,2.46,0
			c0.971,0,2.207-0.191,2.207-0.191l6.607-8.47l0.476-13.049 M-86.626-37.534l0.261,0.785c0,0-1.028,1.607-1.069,2.67
			c-0.039,1.066,0.769,2.835,0.769,2.835s0.961,0.231,1.235,0.629c0.276,0.397,0.324,1.848,0.695,2.251
			c0.373,0.398,1.235,0.07,1.633,0.446c0.747,0.703,1.153,0.139,1.45,0.051c0.293-0.088,1.446,0.246,1.427,0.731
			c-0.018,0.482-0.326,0.956-0.06,1.641c0.264,0.688-0.115,3.189-0.719,3.753c-0.601,0.554-1.085,0.44-1.796,1.382
			c0,0-1.137-0.72-1.92-0.456c-0.783,0.261-3.15-0.264-3.946-0.725c-1.614-0.929-0.905-1.775-1.362-2.467
			c-0.461-0.696-1.16-0.044-1.796-1.231c-0.638-1.181,0.084-2.317-0.288-2.719c-0.374-0.401-0.834-0.998-1.474,0.528
			c-0.638,1.526-0.213,3.186-0.908,3.646c-0.692,0.458-1.282,0.627-1.282,0.627s-2.533-2.218-3.679-2.646 M-92.206-9.473
			c0,0-0.081,2.22,0.39,2.625c0.469,0.403,1.678,1.804,0.868,2.74c-0.813,0.939-1.209,1.312-1.24,2.084
			c-0.026,0.775,0.926,1.2,0.926,1.2l0.047,1.356l1.602,1.316c0,0,0.06,1.209,0.637,1.087c0.387-0.083,0.902-1.032,1.777-0.999
			c0.292,0.01,0.649,0.796,0.649,0.796s1.486-0.912,1.125-1.51c-0.369-0.593-0.265-0.782,0.065-1.832
			c0.328-1.056,0.825-1.425,1.157-2.573c0.335-1.148,0.537-1.43,0.864-2.389c0.703-0.651,1.393-0.915,1.429-1.98
			c0.038-1.062-0.524-1.665-0.524-1.665 M-69.216-23.541l1.229,0.815c0,0,1.528,0.638,2.273,1.343
			c0.749,0.705,1.866,2.101,1.866,2.101s1.453-0.044,1.997,0.944c0.546,0.984,1.1,1.684,1.578,1.898
			c0.476,0.209,2.185,1.144,2.185,1.144l1.292,1.691l0.626,1.473c0,0,1.337,0.535,1.797,1.228c0.461,0.692,1.135,0.815,1.587,1.603
			c0.456,0.794,0.813,1.676,1.68,1.805c0.865,0.126,2.645,1.84,2.645,1.84s1.341,0.436,2.174,1.531 M-66.22,3.184l16.833,0.611
			 M-75.471-13.224l9.837,0.362L-66.22,3.184 M-51.081,44.962c-2.486-0.963-8.149-5.038-9.252-6.724
			c-1.101-1.686-1.392-4.309-1.392-4.309c0.509-0.658,0.643-1.721,0.605-3.267c-0.043-1.553,1.317-1.602,1.931-2.449
			c0.614-0.849,2.441-3.202,2.855-3.963c0.418-0.757,1.933-2.446,1.933-2.446c0.542-4.336-0.301-5.042-0.282-5.622
			c0.022-0.578,0.668-2.397,0.9-3.354c0.228-0.961,1.116-1.411,1.116-1.411c1.585-0.912,1.869-3.512,1.896-4.284
			c0.03-0.777,0.951-2.097,1.37-2.953c0.42-0.853,1.933-5.46,1.933-5.46 M-59.12,39.636c0,0-0.719,1.042-0.835,1.614
			c-0.118,0.575-0.885,0.354-1.839-0.067c-0.957-0.421-1.575,0.716-1.995,1.57c-0.419,0.86-3.722,3.741-3.722,3.741l-8.996-0.329
			l-0.7,43.038c0,0,2.404,0.575,3.287,2.831 M-44.494,21.002c0,0-1.76-2.19-3.789-2.265c-2.034-0.074-3.383-0.22-3.81,0.83
			l-2.173,0.281 M-73.834,46.229l5.854-9.076c0,0,0.716-0.042,0.94-0.899c0.222-0.866-0.944-0.715-0.914-1.487
			c0.026-0.775-0.135-1.651-1.824-3.26c0,0,0.814-6.262,1.856-8.258c1.041-1.995-0.327-1.752-0.327-1.752l-1.112-1.395
			c0,0,0.639-1.527,0.569-2.303c-0.068-0.776,0.567-2.207,0.691-2.976c0.127-0.769-0.024-1.937,0.653-4.621
			c0.479-1.881,1.226-7.018,1.226-7.018 M-86.55,2.731c0,0,0.468,0.502,0.532,1.373c0.067,0.875,0.012,2.058-0.136,2.649
			c0,0,0.122-0.325-0.023,1.025c0,0.861,1.786,1.046,1.414,3.074c-0.086,0.48,0.303,1.137-0.062,2.52
			c0.959,0.324,2.167-0.338,3.152-0.787c0.985-0.447,2.095,0.854,3.623,1.486c1.528,0.636,4.712,0.948,5.592,0.787
			c0.877-0.162,1.936,0.069,2.615,0.096c0.672,0.024,0.983,2.165,0.983,2.165 M-110.226,1.191c0,0,0.652,0.702,1.812,0.746
			c2.409,0.376,2.163-0.89,2.525-0.201c0.363,0.691-0.496,0.367-0.333,1.246c-0.208,0.283,0.854,0.418,0.854,0.418
			s0.662,0.508,1.242,0.529c0.582,0.019,0.868,0.033,0.868,0.033s0.539,1.18,1.015,1.488c1.431,0.538,2.639-0.677,3.89-0.44
			c1.248,0.244,2.602,0.386,3.365,0.705c0.76,0.318,0.337,1.367,0.808,1.771c0.466,0.404-0.134,0.961,0.535,1.278
			c0.385,0.013,0.968,0.037,1.239,0.529c0.272,0.493,1.403,1.406,1.69,1.513c0.283,0.107,0.703,1.866,0.703,1.866
			s0.168,0.778,0.747,0.8c0.639,1.088,1.242,3.836,1.242,3.836"/>
		<path id="Stroke-7" fill="none" stroke="#FFFFFF" stroke-width="1.5" stroke-linecap="round" d="M-85.871,50.564
			c0,0-0.141-12.101-0.198-13.169c0.703-0.749,0.246-1.441,0.246-1.441s0.817-1.23,0.95-2.19c0.133-0.967-0.616-1.67-0.616-1.67
			l-1.358,0.047c-0.212-2.137-1.179-2.174-2.32-2.793c-1.14-0.625-0.65-3.413-0.927-3.711c-0.284-0.303-0.437-1.372-0.437-1.372
			s0.813-1.036,0.84-1.81c0.027-0.771,1.064-2.669,1.102-3.734c0.041-1.063,0.643-1.621,1.714-1.776
			c1.075-0.157,1.99-0.562,1.451-2.56c-0.127-0.477,0.108-1.015,0.108-1.015h0.49 M-76.641,50.771l-9.325-0.305l-0.062,7.062
			c0,0-8.038-0.196-16.965,0.254l0.094,15.972c0,0,0.557,3.406-0.041,3.869c-0.604,0.46-2.342,3.106-2.742,3.382
			c-0.432,1.147-2.388,1.754-2.704,2.42c-0.313,0.665-0.903,0.839-0.903,0.839s-1.647,0.036-1.672,0.714
			c-0.025,0.673-0.463,2.014-0.581,2.691c-0.122,0.668-0.533,1.334-1.211,1.311c-0.678-0.026-1.286,0.624-2.155,0.693
			c-0.877,0.064-1.413,1.495-1.413,1.495s0.436,1.369-0.36,1.923c-0.796,0.552-1.266,0.146-1.943,0.12
			c-0.678-0.025-1.93,0.444-1.93,0.444 M-115.221,58.4c0,0,0.54,1.18,0.523,1.665c-0.02,0.482,1.045,0.521,1.084,2.072
			c0.572,0.213,1.728,0.449,2.165,1.723c0.436,1.274,0.519,1.759,1.291,1.885c0.768,0.126,2.428-0.299,2.984,0.497
			c0.549,0.794,1.141,0.524,1.53,0.539c0.384,0.014,1.199,1.592,2.752,1.554c1.551-0.043,3.014-0.278,2.964,1.077
			c0.071,0.676-1.289,0.725-0.844,1.903c0.17,0.685,1.559-0.233,1.327,0.823c-0.232,1.056,0.347,1.077,0.347,1.077
			s1.877-1.09,2.136-0.112c0.253,0.973,1.114,1.291,1.792,1.319c1.353,0.047,1.67,1.995,3.326,1.768
			c1.654-0.232,1.279-0.534,1.933,0.071c0.656,0.606,2.052-0.411,2.704,0.29c1.373-0.533,1.85-0.323,3.593-0.259
			c1.741,0.064,2.678,0.968,2.678,0.968c0,0.001,1.578,0.901,2.171,1.534c0.373,0.399,0.468,0.934,1.622,1.038 M-85.583,98.387
			c-0.001,0-20.534-0.169-33.772,1.576 M-97.437,125.925c0,0-11.525-0.231-19.037,1.339 M-93.989,57.468l0.066-6.617
			c0,0-1.689-4.124-1.854-4.902c-0.165-0.782,1.219-1.602-0.086-3.005c-0.896-0.964-0.707-1.865-0.984-2.164
			c-0.283-0.302-0.99-2.168-0.925-3.906c0.064-1.74-0.84-3.515-1.387-4.41c-0.552-0.888-1.242-0.525-1.529-0.632
			c-1.266,0.24-1.145-0.731-2.226-0.755c-2.705-0.06-2.892,2.151-4.245,1.66c-0.771-0.282,0.119-1.225-0.184-1.476
			c-0.547-0.449-1.919-0.17-2.217-0.554c0,0-0.913,0.954-1.783,0.922c-0.871-0.031-0.616,2.828-0.616,2.828
			s-1.886-0.115-3.076,0.615 M-113.591,5.809c0,0,2.015,0.46,2.59,0.678c0.573,0.214,1.107,1.49,1.384,1.985
			c0.27,0.492,1.692,1.324,1.074,2.362c-0.619,1.043-0.403,3.084,0.165,3.394c0.486-0.083,3.101,0.014,4.138,0.828
			c1.032,0.811,1.189,1.881,2.147,2.206c0.955,0.325,1.69,1.418,1.776,1.809c0.083,0.388,0.927,1.096,1.394,1.598
			c0.465,0.501,1.408,1.213,1.269,2.366c-0.14,1.157,0.338,4.079,0.802,4.583c0.464,0.498,1.334,1.93,1.334,1.93 M-89.167,29.348
			l-1.652,0.135c0,0-1.049-0.426-1.468,0.427c-0.103,0.191-0.855-0.416-2.022-0.364c-1.163,0.057-4.359,0.036-4.359,0.036
			s-0.027,0.673,0.038,1.548c0.068,0.873-0.339,1.077-0.265,1.658"/>
	</g>
</g>
</svg>
